<mxfile host="Electron" agent="Mozilla/5.0 (Windows NT 10.0; Win64; x64) AppleWebKit/537.36 (KHTML, like Gecko) draw.io/24.7.17 Chrome/128.0.6613.36 Electron/32.0.1 Safari/537.36" version="24.7.17">
  <diagram name="Страница — 1" id="d8nzEJ2zcpGzdaxowSs1">
    <mxGraphModel dx="472" dy="835" grid="1" gridSize="10" guides="1" tooltips="1" connect="1" arrows="1" fold="1" page="1" pageScale="1" pageWidth="827" pageHeight="1169" math="0" shadow="0">
      <root>
        <mxCell id="0" />
        <mxCell id="1" parent="0" />
        <mxCell id="sRFXAXGEAmHEGnhNBkIj-4" style="edgeStyle=orthogonalEdgeStyle;rounded=0;orthogonalLoop=1;jettySize=auto;html=1;exitX=0.5;exitY=1;exitDx=0;exitDy=0;entryX=0.5;entryY=0;entryDx=0;entryDy=0;" edge="1" parent="1" source="sRFXAXGEAmHEGnhNBkIj-1" target="sRFXAXGEAmHEGnhNBkIj-2">
          <mxGeometry relative="1" as="geometry" />
        </mxCell>
        <mxCell id="sRFXAXGEAmHEGnhNBkIj-1" value="Начало" style="ellipse;whiteSpace=wrap;html=1;" vertex="1" parent="1">
          <mxGeometry x="190" y="390" width="120" height="80" as="geometry" />
        </mxCell>
        <mxCell id="sRFXAXGEAmHEGnhNBkIj-9" style="edgeStyle=orthogonalEdgeStyle;rounded=0;orthogonalLoop=1;jettySize=auto;html=1;exitX=0.5;exitY=1;exitDx=0;exitDy=0;entryX=0.5;entryY=0;entryDx=0;entryDy=0;" edge="1" parent="1" source="sRFXAXGEAmHEGnhNBkIj-2" target="sRFXAXGEAmHEGnhNBkIj-6">
          <mxGeometry relative="1" as="geometry" />
        </mxCell>
        <mxCell id="sRFXAXGEAmHEGnhNBkIj-2" value="&lt;div&gt;cout &amp;lt;&amp;lt; &quot;Введите 2 числа, по одному в каждой строке: \n&quot;;&lt;/div&gt;" style="shape=parallelogram;perimeter=parallelogramPerimeter;whiteSpace=wrap;html=1;fixedSize=1;" vertex="1" parent="1">
          <mxGeometry x="80" y="510" width="340" height="60" as="geometry" />
        </mxCell>
        <mxCell id="sRFXAXGEAmHEGnhNBkIj-18" style="edgeStyle=orthogonalEdgeStyle;rounded=0;orthogonalLoop=1;jettySize=auto;html=1;exitX=0.5;exitY=1;exitDx=0;exitDy=0;entryX=0.5;entryY=0;entryDx=0;entryDy=0;" edge="1" parent="1" source="sRFXAXGEAmHEGnhNBkIj-6" target="sRFXAXGEAmHEGnhNBkIj-10">
          <mxGeometry relative="1" as="geometry" />
        </mxCell>
        <mxCell id="sRFXAXGEAmHEGnhNBkIj-6" value="&lt;div&gt;cin &amp;gt;&amp;gt; a &amp;gt;&amp;gt; b;&lt;/div&gt;" style="shape=parallelogram;perimeter=parallelogramPerimeter;whiteSpace=wrap;html=1;fixedSize=1;" vertex="1" parent="1">
          <mxGeometry x="80" y="610" width="340" height="60" as="geometry" />
        </mxCell>
        <mxCell id="sRFXAXGEAmHEGnhNBkIj-7" value="" style="endArrow=none;dashed=1;html=1;dashPattern=1 3;strokeWidth=2;rounded=0;" edge="1" parent="1">
          <mxGeometry width="50" height="50" relative="1" as="geometry">
            <mxPoint x="440" y="490" as="sourcePoint" />
            <mxPoint x="250" y="490" as="targetPoint" />
          </mxGeometry>
        </mxCell>
        <mxCell id="sRFXAXGEAmHEGnhNBkIj-8" value="&lt;div&gt;#include &amp;lt;iostream&amp;gt;&lt;/div&gt;&lt;div&gt;using namespace std;&lt;/div&gt;&lt;div&gt;&lt;br&gt;&lt;/div&gt;&lt;div&gt;int main()&lt;/div&gt;&lt;div&gt;{&lt;/div&gt;&lt;div&gt;&lt;span style=&quot;white-space-collapse: collapse;&quot;&gt;&lt;span style=&quot;white-space-collapse: preserve;&quot;&gt;&#x9;&lt;/span&gt;setlocale(LC_ALL, &quot;Russian&quot;);&lt;/span&gt;&lt;/div&gt;&lt;div&gt;&lt;span style=&quot;white-space-collapse: collapse;&quot;&gt;&lt;span style=&quot;white-space-collapse: preserve;&quot;&gt;&#x9;&lt;/span&gt;float a, b;&lt;/span&gt;&lt;/div&gt;" style="strokeWidth=2;html=1;shape=mxgraph.flowchart.annotation_1;align=left;pointerEvents=1;" vertex="1" parent="1">
          <mxGeometry x="440" y="440" width="50" height="100" as="geometry" />
        </mxCell>
        <mxCell id="sRFXAXGEAmHEGnhNBkIj-19" style="edgeStyle=orthogonalEdgeStyle;rounded=0;orthogonalLoop=1;jettySize=auto;html=1;exitX=0.5;exitY=1;exitDx=0;exitDy=0;" edge="1" parent="1" source="sRFXAXGEAmHEGnhNBkIj-10" target="sRFXAXGEAmHEGnhNBkIj-11">
          <mxGeometry relative="1" as="geometry" />
        </mxCell>
        <mxCell id="sRFXAXGEAmHEGnhNBkIj-10" value="float* a_ptr = &amp;amp;a;" style="rounded=0;whiteSpace=wrap;html=1;" vertex="1" parent="1">
          <mxGeometry x="190" y="710" width="120" height="60" as="geometry" />
        </mxCell>
        <mxCell id="sRFXAXGEAmHEGnhNBkIj-20" style="edgeStyle=orthogonalEdgeStyle;rounded=0;orthogonalLoop=1;jettySize=auto;html=1;exitX=0.5;exitY=1;exitDx=0;exitDy=0;entryX=0.5;entryY=0;entryDx=0;entryDy=0;" edge="1" parent="1" source="sRFXAXGEAmHEGnhNBkIj-11" target="sRFXAXGEAmHEGnhNBkIj-12">
          <mxGeometry relative="1" as="geometry" />
        </mxCell>
        <mxCell id="sRFXAXGEAmHEGnhNBkIj-11" value="float* b_ptr = &amp;amp;b;" style="rounded=0;whiteSpace=wrap;html=1;" vertex="1" parent="1">
          <mxGeometry x="190" y="820" width="120" height="60" as="geometry" />
        </mxCell>
        <mxCell id="sRFXAXGEAmHEGnhNBkIj-29" style="edgeStyle=orthogonalEdgeStyle;rounded=0;orthogonalLoop=1;jettySize=auto;html=1;exitX=0.5;exitY=1;exitDx=0;exitDy=0;entryX=0.5;entryY=0;entryDx=0;entryDy=0;" edge="1" parent="1" source="sRFXAXGEAmHEGnhNBkIj-12" target="sRFXAXGEAmHEGnhNBkIj-16">
          <mxGeometry relative="1" as="geometry" />
        </mxCell>
        <mxCell id="sRFXAXGEAmHEGnhNBkIj-12" value="float c = *b_ptr + *a_ptr;" style="rounded=0;whiteSpace=wrap;html=1;" vertex="1" parent="1">
          <mxGeometry x="190" y="920" width="120" height="60" as="geometry" />
        </mxCell>
        <mxCell id="sRFXAXGEAmHEGnhNBkIj-25" style="edgeStyle=orthogonalEdgeStyle;rounded=0;orthogonalLoop=1;jettySize=auto;html=1;exitX=0.5;exitY=1;exitDx=0;exitDy=0;entryX=0.5;entryY=0;entryDx=0;entryDy=0;" edge="1" parent="1" source="sRFXAXGEAmHEGnhNBkIj-16" target="sRFXAXGEAmHEGnhNBkIj-17">
          <mxGeometry relative="1" as="geometry" />
        </mxCell>
        <mxCell id="sRFXAXGEAmHEGnhNBkIj-28" value="" style="edgeStyle=orthogonalEdgeStyle;rounded=0;orthogonalLoop=1;jettySize=auto;html=1;" edge="1" parent="1" source="sRFXAXGEAmHEGnhNBkIj-16" target="sRFXAXGEAmHEGnhNBkIj-17">
          <mxGeometry relative="1" as="geometry" />
        </mxCell>
        <mxCell id="sRFXAXGEAmHEGnhNBkIj-16" value="&lt;div&gt;cout &amp;lt;&amp;lt; &quot;a + b = &quot; &amp;lt;&amp;lt; c &amp;lt;&amp;lt; endl;&lt;/div&gt;" style="shape=parallelogram;perimeter=parallelogramPerimeter;whiteSpace=wrap;html=1;fixedSize=1;" vertex="1" parent="1">
          <mxGeometry x="80" y="1020" width="340" height="60" as="geometry" />
        </mxCell>
        <mxCell id="sRFXAXGEAmHEGnhNBkIj-17" value="Конец" style="ellipse;whiteSpace=wrap;html=1;" vertex="1" parent="1">
          <mxGeometry x="190" y="1120" width="120" height="80" as="geometry" />
        </mxCell>
        <mxCell id="sRFXAXGEAmHEGnhNBkIj-26" value="" style="endArrow=none;dashed=1;html=1;dashPattern=1 3;strokeWidth=2;rounded=0;" edge="1" parent="1">
          <mxGeometry width="50" height="50" relative="1" as="geometry">
            <mxPoint x="440" y="1100" as="sourcePoint" />
            <mxPoint x="250" y="1100" as="targetPoint" />
          </mxGeometry>
        </mxCell>
        <mxCell id="sRFXAXGEAmHEGnhNBkIj-27" value="&lt;div&gt;&lt;span style=&quot;white-space-collapse: collapse;&quot;&gt;&lt;span style=&quot;white-space-collapse: preserve;&quot;&gt;&#x9;&lt;/span&gt;return 0;&lt;/span&gt;&lt;/div&gt;&lt;div&gt;}&lt;/div&gt;" style="strokeWidth=2;html=1;shape=mxgraph.flowchart.annotation_1;align=left;pointerEvents=1;" vertex="1" parent="1">
          <mxGeometry x="440" y="1050" width="50" height="100" as="geometry" />
        </mxCell>
      </root>
    </mxGraphModel>
  </diagram>
</mxfile>
